<svg width="80" height="80" viewBox="0 0 80 80" fill="none" xmlns="http://www.w3.org/2000/svg">
<path d="M40 6.6665C21.6 6.6665 6.66666 21.5998 6.66666 39.9998C6.66666 58.3998 21.6 73.3332 40 73.3332C58.4 73.3332 73.3333 58.3998 73.3333 39.9998C73.3333 21.5998 58.4 6.6665 40 6.6665Z" fill="#E7DEDE" fill-opacity="0.5"/>
<path d="M21.25 35.8333H44.1667V40H21.25V35.8333ZM21.25 31.6667H44.1667V27.5H21.25V31.6667ZM21.25 48.3333H35.8333V44.1667H21.25V48.3333ZM52.5208 41.8125L54 40.3333C54.8125 39.5208 56.125 39.5208 56.9375 40.3333L58.4167 41.8125C59.2292 42.625 59.2292 43.9375 58.4167 44.75L56.9375 46.2292L52.5208 41.8125ZM51.0417 43.2917L40 54.3333V58.75H44.4167L55.4583 47.7083L51.0417 43.2917Z" fill="#1B8DA6"/>
</svg>
