<svg width="80" height="80" viewBox="0 0 80 80" fill="none" xmlns="http://www.w3.org/2000/svg">
<path d="M40 6.6665C21.6 6.6665 6.66666 21.5998 6.66666 39.9998C6.66666 58.3998 21.6 73.3332 40 73.3332C58.4 73.3332 73.3333 58.3998 73.3333 39.9998C73.3333 21.5998 58.4 6.6665 40 6.6665Z" fill="#E7DEDE" fill-opacity="0.5"/>
<path d="M54.5833 54.5833H25.4167V25.4167H44.1667V21.25H25.4167C23.125 21.25 21.25 23.125 21.25 25.4167V54.5833C21.25 56.875 23.125 58.75 25.4167 58.75H54.5833C56.875 58.75 58.75 56.875 58.75 54.5833V35.8333H54.5833V54.5833Z" fill="#1B8DA6"/>
<path d="M50.4167 42.0835H46.25V50.4168H50.4167V42.0835Z" fill="#1B8DA6"/>
<path d="M33.75 35.8335H29.5833V50.4168H33.75V35.8335Z" fill="#1B8DA6"/>
<path d="M42.0833 29.5835H37.9167V50.4168H42.0833V29.5835Z" fill="#1B8DA6"/>
<path d="M54.5833 25.4167V21.25H50.4167V25.4167H46.25V29.5833H50.4167V33.75H54.5833V29.5833H58.75V25.4167H54.5833Z" fill="#1B8DA6"/>
</svg>
