<svg width="80" height="80" viewBox="0 0 80 80" fill="none" xmlns="http://www.w3.org/2000/svg">
<path d="M40 6.6665C21.6 6.6665 6.66666 21.5998 6.66666 39.9998C6.66666 58.3998 21.6 73.3332 40 73.3332C58.4 73.3332 73.3333 58.3998 73.3333 39.9998C73.3333 21.5998 58.4 6.6665 40 6.6665Z" fill="#E7DEDE" fill-opacity="0.5"/>
<path d="M30.625 25.4167C30.75 27.2708 31.0625 29.0833 31.5625 30.8125L29.0625 33.3125C28.2083 30.8125 27.6667 28.1667 27.4792 25.4167H30.625ZM51.1667 50.4583C52.9375 50.9583 54.75 51.2708 56.5833 51.3958V54.5C53.8333 54.3125 51.1875 53.7708 48.6667 52.9375L51.1667 50.4583ZM32.625 21.25H25.3333C24.1875 21.25 23.25 22.1875 23.25 23.3333C23.25 42.8958 39.1042 58.75 58.6667 58.75C59.8125 58.75 60.75 57.8125 60.75 56.6667V49.3958C60.75 48.25 59.8125 47.3125 58.6667 47.3125C56.0833 47.3125 53.5625 46.8958 51.2292 46.125C51.0208 46.0417 50.7917 46.0208 50.5833 46.0208C50.0417 46.0208 49.5208 46.2292 49.1042 46.625L44.5208 51.2083C38.625 48.1875 33.7917 43.375 30.7917 37.4792L35.375 32.8958C35.9583 32.3125 36.125 31.5 35.8958 30.7708C35.125 28.4375 34.7083 25.9375 34.7083 23.3333C34.7083 22.1875 33.7708 21.25 32.625 21.25Z" fill="#1B8DA6"/>
</svg>
