<svg width="80" height="80" viewBox="0 0 80 80" fill="none" xmlns="http://www.w3.org/2000/svg">
<path d="M40 6.6665C21.6 6.6665 6.66666 21.5998 6.66666 39.9998C6.66666 58.3998 21.6 73.3332 40 73.3332C58.4 73.3332 73.3333 58.3998 73.3333 39.9998C73.3333 21.5998 58.4 6.6665 40 6.6665Z" fill="#E7DEDE" fill-opacity="0.5"/>
<path d="M39.5833 37.7083C34.8542 36.4792 33.3333 35.2083 33.3333 33.2292C33.3333 30.9583 35.4375 29.375 38.9583 29.375C42.6667 29.375 44.0417 31.1458 44.1667 33.75H48.7708C48.625 30.1667 46.4375 26.875 42.0833 25.8125V21.25H35.8333V25.75C31.7917 26.625 28.5417 29.25 28.5417 33.2708C28.5417 38.0833 32.5208 40.4792 38.3333 41.875C43.5417 43.125 44.5833 44.9583 44.5833 46.8958C44.5833 48.3333 43.5625 50.625 38.9583 50.625C34.6667 50.625 32.9792 48.7083 32.75 46.25H28.1667C28.4167 50.8125 31.8333 53.375 35.8333 54.2292V58.75H42.0833V54.2708C46.1458 53.5 49.375 51.1458 49.375 46.875C49.375 40.9583 44.3125 38.9375 39.5833 37.7083Z" fill="#1B8DA6"/>
</svg>
