<svg width="772" height="758" viewBox="0 0 772 758" fill="none" xmlns="http://www.w3.org/2000/svg">
<path d="M771.385 509.46H475.459V338.213H771.385V509.46ZM477.265 507.654H769.579V340.019H477.265V507.654Z" fill="#E0E0E0"/>
<path d="M710.336 429.524H515.093V435.248H710.336V429.524Z" fill="#F0F0F0"/>
<path d="M723.788 450.867H515.093V457.114H723.788V450.867Z" fill="#F0F0F0"/>
<path d="M723.788 472.462H515.093V478.709H723.788V472.462Z" fill="#F0F0F0"/>
<path d="M583.328 398.521H515.093V413.382H583.328V398.521Z" fill="#F0F0F0"/>
<path d="M770.482 339.116H476.417V366.381H770.482V339.116Z" fill="#E0E0E0"/>
<path d="M747.857 362.3C747.478 361.939 751.27 357.371 756.308 352.099C761.345 346.826 765.769 342.836 766.13 343.179C766.492 343.522 762.718 348.108 757.68 353.399C752.642 358.689 748.218 362.662 747.857 362.3Z" fill="white"/>
<path d="M766.166 362.3C765.805 362.661 761.4 358.689 756.344 353.398C751.288 348.108 747.514 343.54 747.893 343.179C748.273 342.817 752.66 346.79 757.716 352.098C762.772 357.407 766.51 361.939 766.166 362.3Z" fill="white"/>
<path d="M407.243 0H113.177V169.459H407.243V0Z" fill="#E6E6E6"/>
<path d="M347.115 90.4263H151.872V96.1501H347.115V90.4263Z" fill="#F0F0F0"/>
<path d="M360.567 111.769H151.872V118.016H360.567V111.769Z" fill="#F0F0F0"/>
<path d="M360.567 133.364H151.872V139.612H360.567V133.364Z" fill="#F0F0F0"/>
<path d="M220.107 59.4233H151.872V74.2837H220.107V59.4233Z" fill="#F0F0F0"/>
<path d="M407.243 0H113.177V27.2651H407.243V0Z" fill="#E0E0E0"/>
<path d="M383.625 23.0579C383.246 22.7149 387.038 18.1286 392.075 12.8561C397.113 7.58366 401.537 3.59321 401.898 3.95434C402.259 4.31547 398.485 8.88372 393.448 14.1562C388.41 19.4286 383.986 23.383 383.625 23.0579Z" fill="white"/>
<path d="M401.898 23.058C401.537 23.4192 397.131 19.4468 392.075 14.1563C387.019 8.86575 383.246 4.31556 383.625 3.95443C384.004 3.59331 388.392 7.56569 393.448 12.8562C398.503 18.1467 402.277 22.715 401.898 23.058Z" fill="white"/>
<path d="M295.871 314.794H0V143.53H295.871V314.794ZM1.80563 312.989H294.065V145.335H1.80563V312.989Z" fill="#E0E0E0"/>
<path d="M234.841 234.859H39.5975V240.583H234.841V234.859Z" fill="#F0F0F0"/>
<path d="M248.293 256.201H39.5975V262.449H248.293V256.201Z" fill="#F0F0F0"/>
<path d="M248.293 277.797H39.5975V284.044H248.293V277.797Z" fill="#F0F0F0"/>
<path d="M107.832 203.856H39.5975V218.716H107.832V203.856Z" fill="#F0F0F0"/>
<path d="M294.968 144.433H0.902832V171.698H294.968V144.433Z" fill="#E0E0E0"/>
<path d="M637.335 354.031H290.111V664.889H637.335V354.031Z" fill="#E6E6E6"/>
<path d="M307.572 256.111H35.571V538.711H307.572V256.111Z" fill="#F0F0F0"/>
<path d="M307.572 256.111H35.571V286.897H307.572V256.111Z" fill="#E0E0E0"/>
<path d="M58.0331 271.188C57.9836 272.304 57.6073 273.382 56.951 274.286C56.2947 275.191 55.3873 275.883 54.3413 276.276C53.2953 276.669 52.1569 276.747 51.0672 276.499C49.9776 276.251 48.9847 275.689 48.2118 274.882C47.4389 274.074 46.9201 273.058 46.7196 271.959C46.5192 270.859 46.646 269.725 47.0843 268.697C47.5226 267.669 48.2531 266.793 49.1851 266.176C50.1172 265.56 51.2098 265.231 52.3273 265.229C53.8726 265.267 55.3402 265.915 56.4093 267.032C57.4784 268.148 58.0622 269.643 58.0331 271.188V271.188Z" fill="white"/>
<path d="M81.1994 271.188C81.1533 272.31 80.7785 273.393 80.1214 274.303C79.4643 275.214 78.5541 275.911 77.5039 276.308C76.4538 276.704 75.3101 276.784 74.2153 276.536C73.1204 276.288 72.1227 275.723 71.3462 274.912C70.5698 274.101 70.0489 273.08 69.8485 271.975C69.648 270.871 69.7768 269.732 70.2188 268.7C70.6608 267.668 71.3966 266.789 72.3344 266.172C73.2723 265.554 74.3709 265.227 75.4936 265.23C77.0389 265.267 78.5065 265.915 79.5756 267.032C80.6447 268.148 81.2285 269.643 81.1994 271.188V271.188Z" fill="white"/>
<path d="M104.366 271.188C104.32 272.31 103.945 273.393 103.288 274.303C102.631 275.214 101.72 275.911 100.67 276.308C99.6201 276.704 98.4764 276.784 97.3815 276.536C96.2866 276.288 95.2889 275.723 94.5125 274.912C93.736 274.101 93.2152 273.08 93.0147 271.975C92.8143 270.871 92.9431 269.732 93.3851 268.7C93.8271 267.668 94.5628 266.789 95.5007 266.172C96.4386 265.554 97.5372 265.227 98.6598 265.23C100.205 265.267 101.673 265.915 102.742 267.032C103.811 268.148 104.395 269.643 104.366 271.188V271.188Z" fill="white"/>
<path d="M732.546 61.8066H385.322V407.874H732.546V61.8066Z" fill="#F0F0F0"/>
<path d="M732.546 61.8066H385.322V102.343H732.546V61.8066Z" fill="#E0E0E0"/>
<path d="M414.899 81.669C414.835 83.1426 414.34 84.5652 413.475 85.7599C412.61 86.9546 411.413 87.8689 410.032 88.3893C408.652 88.9097 407.149 89.0132 405.711 88.687C404.272 88.3608 402.961 87.6193 401.941 86.5545C400.92 85.4896 400.234 84.1484 399.969 82.6974C399.704 81.2464 399.871 79.7494 400.449 78.3924C401.027 77.0354 401.991 75.8782 403.222 75.0643C404.452 74.2504 405.894 73.8158 407.369 73.8145C409.408 73.8618 411.345 74.7149 412.756 76.187C414.167 77.659 414.937 79.6301 414.899 81.669V81.669Z" fill="white"/>
<path d="M443.193 76.3603C444.194 77.4473 444.853 78.8049 445.088 80.2639C445.323 81.7228 445.123 83.2187 444.514 84.565C443.905 85.9113 442.913 87.0486 441.662 87.8351C440.411 88.6216 438.956 89.0226 437.478 88.9881C436.001 88.9537 434.566 88.4853 433.353 87.6412C432.14 86.7972 431.203 85.6149 430.657 84.2416C430.111 82.8684 429.981 81.3649 430.284 79.9185C430.587 78.4721 431.308 77.1467 432.359 76.1075C433.831 74.7071 435.797 73.9474 437.828 73.9948C439.859 74.0422 441.788 74.8928 443.193 76.3603V76.3603Z" fill="white"/>
<path d="M475.893 81.669C475.829 83.1426 475.334 84.5652 474.469 85.7599C473.604 86.9546 472.407 87.8689 471.027 88.3893C469.646 88.9097 468.144 89.0132 466.705 88.687C465.267 88.3608 463.956 87.6193 462.935 86.5545C461.914 85.4896 461.229 84.1484 460.963 82.6974C460.698 81.2464 460.865 79.7494 461.443 78.3924C462.022 77.0354 462.986 75.8782 464.216 75.0643C465.446 74.2504 466.888 73.8158 468.363 73.8145C470.402 73.8618 472.339 74.7149 473.75 76.187C475.161 77.659 475.932 79.6301 475.893 81.669V81.669Z" fill="white"/>
<path d="M657.54 756.705C657.54 756.958 532.156 757.174 377.54 757.174C222.924 757.174 97.4862 756.958 97.4862 756.705C97.4862 756.452 222.851 756.235 377.54 756.235C532.229 756.235 657.54 756.47 657.54 756.705Z" fill="#263238"/>
<path d="M599.218 46.2782L589.919 49.6006L585.928 37.4486C578.597 15.0407 555.232 3.1416 533.763 10.7072C512.294 18.2728 500.865 42.8475 508.196 65.2554L512.186 77.4073L502.851 80.7477C499.291 82.1284 496.401 84.8278 494.78 88.2847C493.159 91.7416 492.933 95.6902 494.148 99.3097L520.023 178.378C520.56 180.17 521.451 181.836 522.645 183.276C523.838 184.716 525.309 185.902 526.97 186.763C528.631 187.623 530.448 188.142 532.313 188.286C534.177 188.431 536.052 188.199 537.826 187.605L634.193 153.136C637.799 151.757 640.731 149.034 642.371 145.539C644.011 142.043 644.232 138.048 642.986 134.393L617.093 55.3244C616.542 53.5377 615.637 51.8802 614.431 50.451C613.226 49.0218 611.745 47.8501 610.076 47.0058C608.408 46.1615 606.587 45.6619 604.721 45.5369C602.855 45.4119 600.984 45.664 599.218 46.2782V46.2782ZM525.764 58.9176C523.788 53.0912 524.143 46.726 526.755 41.1553C529.367 35.5847 534.033 31.2411 539.776 29.0344C542.612 28.0641 545.614 27.675 548.604 27.8903C551.594 28.1056 554.509 28.921 557.177 30.2876C559.844 31.6543 562.209 33.5443 564.131 35.8449C566.052 38.1455 567.49 40.8096 568.359 43.6781L572.332 55.83L529.737 71.0696L525.764 58.9176ZM579.933 129.085L586.542 149.272C586.663 149.676 586.624 150.112 586.433 150.489C586.241 150.865 585.912 151.154 585.513 151.294L576.25 154.598C575.881 154.7 575.487 154.656 575.151 154.474C574.814 154.292 574.561 153.987 574.444 153.623L567.782 133.526C564.108 133.326 560.583 132.009 557.678 129.75C554.774 127.491 552.629 124.399 551.531 120.887C549.96 116.245 550.247 111.175 552.33 106.739C554.414 102.303 558.132 98.8447 562.708 97.0887C564.967 96.3169 567.358 96.0077 569.739 96.1797C572.12 96.3517 574.443 97.0013 576.567 98.0898C578.692 99.1782 580.576 100.683 582.106 102.515C583.637 104.347 584.783 106.469 585.477 108.753C586.639 112.32 586.735 116.149 585.753 119.77C584.772 123.39 582.756 126.646 579.952 129.139L579.933 129.085Z" fill="#1B8DA6"/>
<path d="M589.503 49.3839C589.503 49.6367 572.26 56.1189 550.809 63.8289C529.358 71.539 511.861 77.7323 511.771 77.5517C511.681 77.3712 529.015 70.8348 550.484 63.1067C571.953 55.3786 589.413 49.1491 589.503 49.3839Z" fill="#263238"/>
<path d="M609.979 52.7061C610.059 52.8628 610.125 53.0258 610.178 53.1936C610.322 53.5547 610.485 54.0242 610.701 54.602C611.171 55.9201 611.821 57.7438 612.633 60.0189L619.567 80.2059C622.456 88.7646 625.905 98.9122 629.733 110.179C631.538 115.831 633.669 121.717 635.655 127.911C636.718 131.102 637.178 134.464 637.01 137.824C636.856 139.571 636.359 141.271 635.547 142.825C634.679 144.375 633.52 145.742 632.134 146.852C629.345 148.888 626.248 150.467 622.962 151.528L613.663 154.869L596.058 161.17L566.247 171.788L546.114 178.866L540.697 180.671L539.253 181.141C539.098 181.209 538.933 181.252 538.765 181.267C538.765 181.267 538.909 181.267 539.216 181.05L540.625 180.491L546.042 178.45L566.066 171.083L595.823 160.25L613.392 153.894L622.691 150.535C625.884 149.517 628.891 147.986 631.593 146.003C632.882 144.973 633.961 143.704 634.771 142.265C635.535 140.828 635.996 139.248 636.125 137.625C636.291 134.388 635.85 131.148 634.825 128.073C632.875 121.934 630.816 115.994 628.956 110.342C625.201 99.0567 621.734 88.8729 618.989 80.3142C616.245 71.7555 613.934 64.876 612.345 60.0369C611.586 57.6715 611.008 55.8298 610.539 54.4936L610.106 53.0491C610.051 52.9397 610.009 52.8247 609.979 52.7061V52.7061Z" fill="#263238"/>
<path d="M559.133 27.8064C559.133 27.8064 558.176 27.337 556.406 26.6147C553.884 25.6456 551.216 25.1084 548.515 25.0258C544.512 24.8885 540.528 25.6409 536.851 27.2286C532.379 29.2058 528.555 32.4037 525.819 36.4554C523.064 40.4956 521.585 45.2701 521.575 50.1602C521.613 54.1682 522.221 58.1504 523.381 61.9871C524.32 65.2733 525.295 67.8915 525.945 69.7152C526.328 70.6415 526.642 71.5951 526.884 72.5681C526.371 71.702 525.942 70.7891 525.602 69.8416C524.862 68.036 523.796 65.472 522.749 62.1677C521.464 58.2907 520.764 54.2437 520.673 50.1602C520.624 45.0853 522.137 40.1183 525.006 35.9318C527.838 31.7321 531.818 28.4352 536.472 26.4342C540.264 24.8377 544.372 24.1334 548.479 24.3757C551.239 24.5164 553.949 25.1588 556.478 26.2716C557.154 26.5836 557.806 26.9457 558.428 27.355C558.685 27.4679 558.923 27.6202 559.133 27.8064V27.8064Z" fill="#263238"/>
<path d="M559.963 98.4611C560.251 98.2864 560.553 98.1355 560.866 98.0097C561.77 97.6018 562.706 97.2696 563.665 97.0165C565.187 96.5674 566.757 96.3007 568.341 96.2221C570.497 96.1062 572.654 96.4319 574.679 97.1791C579.302 98.8041 583.545 103.517 585.639 109.818C586.644 113.2 586.644 116.801 585.639 120.183C584.526 123.853 582.529 127.195 579.825 129.915L579.934 129.428C582.335 136.018 584.953 143.169 587.662 150.626L587.824 151.077L587.373 151.24L583.238 152.612L574.21 155.627L573.758 155.772L573.614 155.32C571.14 147.845 568.432 140.875 566.391 134.032L566.788 134.339C563.259 134.046 559.893 132.721 557.11 130.529C554.593 128.59 552.529 126.125 551.061 123.307C549.738 120.807 549.079 118.009 549.147 115.181C549.231 112.291 549.953 109.455 551.261 106.877C552.569 104.299 554.43 102.041 556.713 100.267C557.653 99.504 558.707 98.8946 559.837 98.4611C558.817 99.0662 557.828 99.7231 556.876 100.429C554.368 102.551 552.447 105.28 551.296 108.356C550.308 110.676 549.846 113.185 549.943 115.704C550.04 118.224 550.693 120.69 551.856 122.927C553.298 125.639 555.313 128.005 557.76 129.861C560.415 131.944 563.624 133.2 566.987 133.472H567.294L567.384 133.743C569.371 140.46 572.097 147.484 574.607 154.995L574.011 154.707L583.039 151.691L587.156 150.301L586.867 150.915C584.177 143.457 581.577 136.289 579.193 129.699V129.428L579.41 129.211C582.035 126.603 583.992 123.401 585.116 119.876C586.073 116.641 586.073 113.198 585.116 109.963C583.148 103.896 579.085 99.2916 574.679 97.6666C572.729 96.9146 570.647 96.5645 568.558 96.6374C566.998 96.6731 565.448 96.8851 563.936 97.2693C561.245 97.9374 559.981 98.5513 559.963 98.4611Z" fill="#263238"/>
<path d="M504.151 619.82L323.786 618.989C313.37 618.932 303.403 614.743 296.073 607.342C288.744 599.941 284.651 589.934 284.694 579.518L286.608 127.369C286.63 122.209 287.668 117.103 289.663 112.344C291.659 107.585 294.573 103.266 298.239 99.6341C301.904 96.0019 306.25 93.1278 311.027 91.176C315.804 89.2243 320.919 88.2332 326.079 88.2593L506.426 89.0899C516.842 89.1424 526.811 93.3269 534.144 100.724C541.477 108.122 545.575 118.127 545.536 128.543L543.622 580.674C543.601 585.836 542.563 590.943 540.568 595.704C538.573 600.465 535.659 604.787 531.994 608.422C528.329 612.057 523.984 614.934 519.206 616.89C514.429 618.846 509.313 619.841 504.151 619.82V619.82Z" fill="#455A64"/>
<path d="M506.155 104.636H471.198C470.058 104.658 468.932 104.903 467.887 105.359C466.841 105.815 465.895 106.473 465.104 107.295C464.313 108.116 463.691 109.086 463.274 110.148C462.857 111.21 462.654 112.343 462.676 113.484V119.822C462.697 120.961 462.494 122.094 462.077 123.155C461.66 124.216 461.038 125.184 460.246 126.005C459.454 126.825 458.509 127.481 457.463 127.935C456.418 128.389 455.293 128.633 454.153 128.651L386.008 128.344C383.703 128.283 381.516 127.309 379.929 125.637C378.341 123.964 377.482 121.73 377.54 119.425V113.087C377.598 110.784 376.742 108.553 375.158 106.881C373.574 105.209 371.392 104.233 369.09 104.167H356.793L326.188 104.022C318.908 103.979 311.908 106.822 306.72 111.929C301.532 117.036 298.579 123.99 298.507 131.269L296.702 572.602C296.685 576.214 297.38 579.793 298.747 583.136C300.113 586.479 302.125 589.52 304.667 592.085C307.209 594.65 310.231 596.69 313.561 598.087C316.891 599.484 320.464 600.212 324.075 600.229L504.061 601.059C507.674 601.076 511.256 600.381 514.601 599.013C517.946 597.645 520.989 595.632 523.556 593.089C526.123 590.545 528.164 587.521 529.562 584.189C530.96 580.857 531.688 577.282 531.705 573.668L533.511 132.335C533.554 125.035 530.697 118.017 525.567 112.823C520.437 107.629 513.455 104.684 506.155 104.636V104.636Z" fill="white"/>
<path d="M481.942 542.178L348.108 541.6C346.718 541.6 345.598 540.083 345.616 538.241L345.761 503.23C345.761 501.424 346.898 499.872 348.289 499.872L482.122 500.485C482.893 500.619 483.582 501.044 484.046 501.673C484.511 502.302 484.714 503.087 484.614 503.862L484.488 538.837C484.488 540.697 483.332 542.196 481.942 542.178Z" fill="#1B8DA6"/>
<path d="M386.934 518.323C386.511 518.323 386.104 518.255 385.714 518.119C385.329 517.984 385.031 517.805 384.82 517.583L385.055 517.119C385.261 517.325 385.535 517.493 385.877 517.623C386.218 517.748 386.571 517.81 386.934 517.81C387.443 517.81 387.826 517.718 388.08 517.534C388.335 517.344 388.462 517.1 388.462 516.802C388.462 516.574 388.392 516.393 388.251 516.257C388.116 516.122 387.948 516.019 387.747 515.948C387.546 515.872 387.267 515.791 386.909 515.704C386.481 515.596 386.14 515.493 385.885 515.395C385.63 515.292 385.411 515.138 385.226 514.932C385.047 514.726 384.958 514.447 384.958 514.094C384.958 513.807 385.034 513.547 385.186 513.314C385.337 513.075 385.57 512.886 385.885 512.745C386.199 512.604 386.59 512.533 387.056 512.533C387.381 512.533 387.698 512.579 388.007 512.671C388.322 512.758 388.593 512.88 388.82 513.037L388.617 513.517C388.378 513.36 388.124 513.243 387.853 513.167C387.582 513.086 387.316 513.046 387.056 513.046C386.557 513.046 386.18 513.143 385.926 513.338C385.676 513.528 385.551 513.775 385.551 514.078C385.551 514.306 385.619 514.49 385.755 514.631C385.896 514.767 386.069 514.872 386.275 514.948C386.487 515.019 386.768 515.097 387.121 515.184C387.538 515.287 387.874 515.39 388.129 515.493C388.389 515.591 388.609 515.742 388.788 515.948C388.967 516.149 389.056 516.423 389.056 516.77C389.056 517.057 388.977 517.32 388.82 517.558C388.668 517.791 388.433 517.978 388.113 518.119C387.793 518.255 387.4 518.323 386.934 518.323ZM390.367 512.582H390.969V518.274H390.367V512.582ZM397.578 512.582V518.274H397.082L393.423 513.655V518.274H392.821V512.582H393.317L396.984 517.201V512.582H397.578ZM403.444 515.428H404.021V517.599C403.756 517.832 403.441 518.011 403.078 518.136C402.715 518.26 402.333 518.323 401.932 518.323C401.363 518.323 400.85 518.198 400.395 517.949C399.94 517.699 399.582 517.355 399.322 516.916C399.061 516.471 398.931 515.975 398.931 515.428C398.931 514.88 399.061 514.387 399.322 513.948C399.582 513.504 399.94 513.157 400.395 512.907C400.85 512.658 401.365 512.533 401.94 512.533C402.374 512.533 402.772 512.604 403.135 512.745C403.498 512.88 403.805 513.083 404.054 513.354L403.68 513.737C403.23 513.292 402.658 513.07 401.964 513.07C401.503 513.07 401.086 513.173 400.712 513.379C400.343 513.579 400.053 513.861 399.842 514.225C399.631 514.582 399.525 514.983 399.525 515.428C399.525 515.872 399.631 516.274 399.842 516.631C400.053 516.989 400.343 517.271 400.712 517.477C401.081 517.683 401.495 517.786 401.956 517.786C402.542 517.786 403.038 517.64 403.444 517.347V515.428ZM410.146 518.323C409.408 518.323 408.834 518.111 408.422 517.688C408.01 517.266 407.804 516.65 407.804 515.843V512.582H408.405V515.818C408.405 516.48 408.555 516.973 408.853 517.298C409.151 517.623 409.582 517.786 410.146 517.786C410.715 517.786 411.148 517.623 411.447 517.298C411.745 516.973 411.894 516.48 411.894 515.818V512.582H412.479V515.843C412.479 516.65 412.273 517.266 411.861 517.688C411.455 518.111 410.883 518.323 410.146 518.323ZM416.423 512.582C417.149 512.582 417.718 512.755 418.13 513.102C418.542 513.449 418.748 513.926 418.748 514.534C418.748 515.141 418.542 515.618 418.13 515.965C417.718 516.306 417.149 516.477 416.423 516.477H414.894V518.274H414.292V512.582H416.423ZM416.407 515.948C416.97 515.948 417.401 515.826 417.699 515.582C417.998 515.333 418.147 514.983 418.147 514.534C418.147 514.073 417.998 513.72 417.699 513.476C417.401 513.227 416.97 513.102 416.407 513.102H414.894V515.948H416.407Z" fill="#E8E8E3"/>
<path d="M374.803 234.371L328.362 234.161L328.324 242.683L374.764 242.894L374.803 234.371Z" fill="#1B8DA6"/>
<path opacity="0.1" d="M374.803 234.371L328.362 234.161L328.324 242.683L374.764 242.894L374.803 234.371Z" fill="black"/>
<path d="M510.94 286.698C511.305 286.661 511.663 286.576 512.006 286.446C512.505 286.25 512.94 285.918 513.259 285.487C513.579 285.055 513.77 284.543 513.811 284.008C513.811 281.137 513.811 276.948 513.811 271.567C513.811 268.877 513.811 265.861 513.811 262.539C513.811 261.726 513.811 260.878 513.811 260.029C513.929 259.206 513.75 258.367 513.306 257.664C513.057 257.326 512.734 257.051 512.361 256.86C511.988 256.669 511.576 256.567 511.157 256.562H508.34H482.249L331.226 256.003C330.839 255.996 330.457 256.083 330.111 256.256C329.765 256.429 329.466 256.682 329.239 256.996C328.803 257.702 328.637 258.542 328.77 259.361C328.77 261.167 328.77 262.972 328.77 264.778C328.77 268.389 328.77 272 328.77 275.612C328.77 277.417 328.77 279.223 328.77 281.029C328.695 281.87 328.695 282.716 328.77 283.557C328.865 283.917 329.041 284.251 329.285 284.533C329.529 284.814 329.835 285.036 330.178 285.182C330.534 285.323 330.915 285.391 331.298 285.38H340.488L380.592 285.597L448.483 286.012L494.256 286.373L506.697 286.518H509.929C510.669 286.518 511.031 286.518 511.031 286.518H509.929H506.697H494.256H448.483L380.592 286.301L340.488 286.139H331.298C330.792 286.159 330.288 286.073 329.817 285.886C329.342 285.683 328.919 285.374 328.581 284.983C328.243 284.592 327.999 284.129 327.867 283.629C327.763 283.155 327.726 282.668 327.759 282.184V280.848C327.759 279.042 327.759 277.237 327.759 275.431C327.759 271.82 327.759 268.209 327.759 264.597C327.759 262.792 327.759 260.986 327.759 259.18C327.724 258.7 327.724 258.217 327.759 257.736C327.826 257.205 328.032 256.701 328.355 256.273C328.666 255.838 329.078 255.483 329.556 255.241C330.034 254.999 330.563 254.876 331.099 254.883L482.122 255.714L508.214 255.894H511.031C511.527 255.895 512.016 256.015 512.456 256.244C512.896 256.473 513.274 256.806 513.558 257.212C514.068 257.997 514.273 258.941 514.136 259.867C514.136 260.715 514.136 261.564 514.136 262.376C514.136 265.663 514.136 268.678 514.136 271.405C514.136 276.822 514.01 280.974 513.974 283.863C513.93 284.419 513.728 284.95 513.392 285.395C513.056 285.84 512.6 286.179 512.078 286.373C511.736 286.585 511.342 286.698 510.94 286.698V286.698Z" fill="#E0E0E0"/>
<path d="M427.249 265.067H342.312V273.03H427.249V265.067Z" fill="#1B8DA6"/>
<path opacity="0.2" d="M427.249 265.067H342.312V273.03H427.249V265.067Z" fill="white"/>
<path d="M374.486 312.12L328.046 311.909L328.007 320.432L374.448 320.642L374.486 312.12Z" fill="#1B8DA6"/>
<path opacity="0.1" d="M374.486 312.12L328.046 311.909L328.007 320.432L374.448 320.642L374.486 312.12Z" fill="black"/>
<path d="M509.767 364.449C510.131 364.404 510.493 364.338 510.85 364.251C511.354 364.09 511.818 363.823 512.211 363.468C512.603 363.113 512.915 362.678 513.125 362.192C513.409 361.463 513.521 360.678 513.45 359.899C513.45 359.032 513.45 358.093 513.45 357.046C513.45 354.952 513.45 352.568 513.45 349.824V338.358C513.536 337.528 513.353 336.692 512.926 335.974C512.481 335.238 511.781 334.692 510.958 334.44C510.059 334.279 509.143 334.231 508.232 334.295H482.249L331.749 333.735C330.94 333.737 330.158 334.033 329.551 334.568C328.943 335.102 328.55 335.84 328.445 336.642C328.445 338.358 328.445 340.254 328.445 342.059C328.445 345.671 328.445 349.282 328.445 352.893C328.445 354.699 328.445 356.504 328.445 358.31C328.378 359.154 328.414 360.003 328.553 360.838C328.779 361.57 329.243 362.206 329.871 362.644C330.538 363.067 331.322 363.269 332.11 363.221H334.62H339.838L379.797 363.42L447.454 363.835L493.064 364.196L505.469 364.341H508.701H509.785H508.701H505.469H493.064H447.454L379.761 364.269L339.802 364.124H331.948C330.971 364.182 330.002 363.922 329.185 363.384C328.364 362.815 327.764 361.979 327.488 361.018C327.326 360.101 327.278 359.167 327.343 358.238C327.343 356.432 327.343 354.627 327.343 352.821C327.343 349.21 327.343 345.598 327.343 341.987C327.343 340.181 327.343 338.376 327.343 336.57C327.475 335.538 327.979 334.589 328.76 333.901C329.541 333.213 330.546 332.833 331.587 332.833L482.086 333.663L508.069 333.862C509.037 333.802 510.008 333.869 510.958 334.06C511.896 334.367 512.688 335.01 513.179 335.866C513.646 336.661 513.849 337.584 513.757 338.502C513.757 339.351 513.757 340.181 513.757 341.012C513.757 344.28 513.757 347.278 513.757 350.04C513.757 352.803 513.757 355.132 513.757 357.263C513.757 358.292 513.757 359.249 513.757 360.134C513.823 360.941 513.693 361.753 513.378 362.499C513.143 362.997 512.804 363.439 512.384 363.794C511.963 364.15 511.471 364.41 510.94 364.557C510.546 364.59 510.149 364.553 509.767 364.449V364.449Z" fill="#E0E0E0"/>
<path d="M374.136 393.244L327.696 393.034L327.657 401.556L374.098 401.767L374.136 393.244Z" fill="#1B8DA6"/>
<path opacity="0.1" d="M374.136 393.244L327.696 393.034L327.657 401.556L374.098 401.767L374.136 393.244Z" fill="black"/>
<path d="M509.405 445.54C509.77 445.497 510.132 445.43 510.489 445.341C510.991 445.182 511.453 444.917 511.846 444.565C512.238 444.214 512.551 443.783 512.764 443.301C513.047 442.572 513.158 441.787 513.089 441.008C513.089 440.123 513.089 439.202 513.089 438.137C513.089 436.06 513.089 433.659 513.089 430.914V419.448C513.175 418.618 512.991 417.783 512.565 417.065C512.109 416.343 511.412 415.805 510.597 415.548C509.698 415.381 508.783 415.327 507.871 415.386H481.888L331.388 414.826C330.578 414.828 329.797 415.124 329.189 415.658C328.582 416.193 328.189 416.93 328.084 417.733C328.084 419.539 328.084 421.344 328.084 423.15C328.084 426.761 328.084 430.373 328.084 433.984C328.084 435.789 328.084 437.595 328.084 439.401C328.016 440.239 328.053 441.082 328.192 441.911C328.408 442.647 328.874 443.286 329.51 443.716C330.173 444.149 330.96 444.352 331.749 444.294H339.604L379.562 444.511L447.219 444.926L492.83 445.287L505.234 445.431H508.466C509.189 445.431 509.55 445.431 509.55 445.431C509.55 445.431 509.189 445.431 508.466 445.431H505.234H492.83H447.219L379.562 445.233L339.604 445.07H331.749C330.772 445.136 329.8 444.876 328.986 444.33C328.165 443.761 327.565 442.925 327.289 441.965C327.127 441.047 327.079 440.113 327.145 439.184C327.145 437.378 327.145 435.573 327.145 433.767C327.145 430.156 327.145 426.545 327.145 422.933C327.145 421.128 327.145 419.322 327.145 417.426C327.272 416.395 327.772 415.446 328.55 414.758C329.328 414.07 330.331 413.689 331.37 413.688L481.869 414.519L507.853 414.718C508.82 414.658 509.791 414.725 510.742 414.916C511.68 415.223 512.471 415.866 512.962 416.722C513.43 417.517 513.632 418.44 513.54 419.358C513.54 420.207 513.54 421.055 513.54 421.868C513.54 425.136 513.54 428.134 513.54 430.896C513.54 433.659 513.54 435.988 513.54 438.119C513.54 439.148 513.54 440.105 513.54 440.99C513.61 441.797 513.479 442.61 513.161 443.355C512.927 443.853 512.588 444.295 512.167 444.65C511.746 445.006 511.254 445.266 510.723 445.413C510.3 445.558 509.849 445.602 509.405 445.54V445.54Z" fill="#E0E0E0"/>
<path d="M425.436 345.069L340.5 344.684L340.464 352.646L425.4 353.032L425.436 345.069Z" fill="#1B8DA6"/>
<path opacity="0.2" d="M425.436 345.069L340.5 344.684L340.464 352.646L425.4 353.032L425.436 345.069Z" fill="white"/>
<path d="M348.18 430.806C348.127 431.533 347.862 432.227 347.417 432.804C346.973 433.381 346.369 433.815 345.68 434.052C344.991 434.288 344.248 434.318 343.543 434.136C342.838 433.955 342.201 433.57 341.713 433.03C341.224 432.49 340.905 431.818 340.794 431.099C340.684 430.379 340.787 429.642 341.091 428.981C341.395 428.319 341.887 427.761 342.505 427.376C343.123 426.991 343.841 426.796 344.569 426.816C345.575 426.872 346.518 427.322 347.194 428.069C347.87 428.816 348.225 429.8 348.18 430.806V430.806Z" fill="#1B8DA6"/>
<path d="M359.682 430.86C359.718 431.37 359.648 431.88 359.478 432.361C359.307 432.842 359.04 433.283 358.692 433.656C358.344 434.03 357.923 434.327 357.455 434.531C356.987 434.734 356.482 434.839 355.972 434.839C355.461 434.839 354.957 434.734 354.489 434.531C354.021 434.327 353.6 434.03 353.251 433.656C352.903 433.283 352.636 432.842 352.466 432.361C352.295 431.88 352.226 431.37 352.261 430.86C352.226 430.351 352.295 429.841 352.466 429.36C352.636 428.879 352.903 428.438 353.251 428.065C353.6 427.691 354.021 427.394 354.489 427.19C354.957 426.987 355.461 426.882 355.972 426.882C356.482 426.882 356.987 426.987 357.455 427.19C357.923 427.394 358.344 427.691 358.692 428.065C359.04 428.438 359.307 428.879 359.478 429.36C359.648 429.841 359.718 430.351 359.682 430.86V430.86Z" fill="#1B8DA6"/>
<path d="M371.202 430.915C371.149 431.641 370.884 432.336 370.439 432.913C369.995 433.489 369.391 433.923 368.702 434.16C368.013 434.397 367.27 434.426 366.565 434.245C365.86 434.063 365.223 433.678 364.735 433.138C364.246 432.598 363.927 431.927 363.816 431.207C363.706 430.487 363.809 429.751 364.113 429.089C364.417 428.427 364.909 427.869 365.527 427.485C366.145 427.1 366.863 426.905 367.591 426.924C368.595 426.985 369.536 427.437 370.211 428.182C370.886 428.928 371.242 429.909 371.202 430.915Z" fill="#1B8DA6"/>
<path d="M382.704 430.968C382.651 431.695 382.386 432.389 381.941 432.966C381.497 433.543 380.893 433.977 380.204 434.214C379.515 434.45 378.772 434.48 378.067 434.298C377.362 434.117 376.725 433.732 376.237 433.192C375.748 432.652 375.429 431.981 375.318 431.261C375.207 430.541 375.311 429.804 375.615 429.143C375.919 428.481 376.411 427.923 377.029 427.538C377.647 427.153 378.365 426.959 379.093 426.978C380.097 427.038 381.038 427.49 381.713 428.236C382.388 428.982 382.744 429.963 382.704 430.968Z" fill="#1B8DA6"/>
<path d="M394.206 431.005C394.156 431.732 393.894 432.429 393.451 433.008C393.009 433.587 392.406 434.024 391.717 434.264C391.028 434.503 390.285 434.535 389.578 434.355C388.871 434.175 388.233 433.792 387.743 433.252C387.252 432.713 386.931 432.041 386.82 431.321C386.708 430.6 386.81 429.863 387.114 429.2C387.418 428.537 387.91 427.979 388.529 427.593C389.147 427.208 389.866 427.013 390.595 427.032C391.596 427.093 392.534 427.542 393.208 428.284C393.883 429.026 394.241 430.002 394.206 431.005Z" fill="#1B8DA6"/>
<path d="M405.726 431.059C405.677 431.782 405.417 432.476 404.979 433.054C404.54 433.632 403.943 434.069 403.259 434.311C402.576 434.554 401.836 434.592 401.131 434.419C400.427 434.247 399.788 433.872 399.294 433.342C398.799 432.811 398.471 432.148 398.348 431.433C398.226 430.718 398.316 429.983 398.606 429.318C398.896 428.653 399.374 428.088 399.982 427.691C400.589 427.295 401.299 427.085 402.024 427.086C403.041 427.124 404.002 427.563 404.696 428.308C405.39 429.052 405.76 430.042 405.726 431.059V431.059Z" fill="#1B8DA6"/>
<path d="M417.228 431.113C417.263 431.622 417.194 432.133 417.023 432.614C416.853 433.095 416.585 433.536 416.237 433.909C415.889 434.282 415.468 434.58 415 434.783C414.532 434.986 414.027 435.091 413.517 435.091C413.007 435.091 412.502 434.986 412.034 434.783C411.566 434.58 411.145 434.282 410.797 433.909C410.449 433.536 410.181 433.095 410.011 432.614C409.841 432.133 409.771 431.622 409.807 431.113C409.771 430.604 409.841 430.093 410.011 429.612C410.181 429.131 410.449 428.69 410.797 428.317C411.145 427.944 411.566 427.646 412.034 427.443C412.502 427.239 413.007 427.134 413.517 427.134C414.027 427.134 414.532 427.239 415 427.443C415.468 427.646 415.889 427.944 416.237 428.317C416.585 428.69 416.853 429.131 417.023 429.612C417.194 430.093 417.263 430.604 417.228 431.113Z" fill="#1B8DA6"/>
<path d="M428.73 431.167C428.68 431.891 428.421 432.584 427.982 433.162C427.544 433.74 426.946 434.177 426.263 434.42C425.579 434.662 424.84 434.7 424.135 434.528C423.431 434.355 422.792 433.981 422.297 433.45C421.803 432.92 421.474 432.256 421.352 431.541C421.23 430.826 421.32 430.091 421.61 429.426C421.9 428.762 422.378 428.196 422.985 427.8C423.593 427.403 424.303 427.193 425.028 427.195C426.045 427.232 427.006 427.672 427.7 428.416C428.393 429.161 428.764 430.15 428.73 431.167V431.167Z" fill="#1B8DA6"/>
<path d="M440.232 431.221C440.182 431.949 439.919 432.645 439.477 433.225C439.034 433.804 438.431 434.241 437.743 434.48C437.054 434.72 436.31 434.752 435.604 434.572C434.897 434.392 434.259 434.009 433.768 433.469C433.278 432.93 432.957 432.258 432.845 431.538C432.733 430.817 432.836 430.08 433.139 429.417C433.443 428.754 433.935 428.195 434.554 427.81C435.173 427.424 435.891 427.229 436.62 427.249C437.621 427.309 438.559 427.759 439.234 428.501C439.908 429.243 440.266 430.219 440.232 431.221V431.221Z" fill="#1B8DA6"/>
<g opacity="0.2">
<path opacity="0.2" d="M348.18 430.806C348.127 431.533 347.862 432.227 347.417 432.804C346.973 433.381 346.369 433.815 345.68 434.052C344.991 434.288 344.248 434.318 343.543 434.136C342.838 433.955 342.201 433.57 341.713 433.03C341.224 432.49 340.905 431.818 340.794 431.099C340.684 430.379 340.787 429.642 341.091 428.981C341.395 428.319 341.887 427.761 342.505 427.376C343.123 426.991 343.841 426.796 344.569 426.816C345.575 426.872 346.518 427.322 347.194 428.069C347.87 428.816 348.225 429.8 348.18 430.806V430.806Z" fill="white"/>
<path opacity="0.2" d="M359.682 430.86C359.718 431.37 359.648 431.88 359.478 432.361C359.307 432.842 359.04 433.283 358.692 433.656C358.344 434.03 357.923 434.327 357.455 434.531C356.987 434.734 356.482 434.839 355.972 434.839C355.461 434.839 354.957 434.734 354.489 434.531C354.021 434.327 353.6 434.03 353.251 433.656C352.903 433.283 352.636 432.842 352.466 432.361C352.295 431.88 352.226 431.37 352.261 430.86C352.226 430.351 352.295 429.841 352.466 429.36C352.636 428.879 352.903 428.438 353.251 428.065C353.6 427.691 354.021 427.394 354.489 427.19C354.957 426.987 355.461 426.882 355.972 426.882C356.482 426.882 356.987 426.987 357.455 427.19C357.923 427.394 358.344 427.691 358.692 428.065C359.04 428.438 359.307 428.879 359.478 429.36C359.648 429.841 359.718 430.351 359.682 430.86V430.86Z" fill="white"/>
<path opacity="0.2" d="M371.202 430.915C371.149 431.641 370.884 432.336 370.439 432.913C369.995 433.489 369.391 433.923 368.702 434.16C368.013 434.397 367.27 434.426 366.565 434.245C365.86 434.063 365.223 433.678 364.735 433.138C364.246 432.598 363.927 431.927 363.816 431.207C363.706 430.487 363.809 429.751 364.113 429.089C364.417 428.427 364.909 427.869 365.527 427.485C366.145 427.1 366.863 426.905 367.591 426.924C368.595 426.985 369.536 427.437 370.211 428.182C370.886 428.928 371.242 429.909 371.202 430.915Z" fill="white"/>
<path opacity="0.2" d="M382.704 430.969C382.651 431.695 382.385 432.39 381.941 432.967C381.497 433.544 380.892 433.977 380.204 434.214C379.515 434.451 378.772 434.48 378.067 434.299C377.362 434.117 376.725 433.733 376.236 433.193C375.748 432.653 375.428 431.981 375.318 431.261C375.207 430.541 375.311 429.805 375.615 429.143C375.919 428.481 376.411 427.924 377.029 427.539C377.647 427.154 378.365 426.959 379.093 426.978C380.097 427.039 381.038 427.491 381.713 428.237C382.388 428.983 382.744 429.964 382.704 430.969Z" fill="white"/>
<path opacity="0.2" d="M394.206 431.005C394.156 431.732 393.894 432.429 393.451 433.009C393.009 433.588 392.406 434.025 391.717 434.264C391.028 434.504 390.284 434.535 389.578 434.356C388.871 434.176 388.233 433.792 387.743 433.253C387.252 432.713 386.931 432.042 386.819 431.321C386.708 430.601 386.81 429.863 387.114 429.201C387.418 428.538 387.91 427.979 388.528 427.594C389.147 427.208 389.866 427.013 390.595 427.033C391.596 427.093 392.533 427.542 393.208 428.284C393.883 429.027 394.241 430.003 394.206 431.005Z" fill="white"/>
<path opacity="0.2" d="M405.726 431.059C405.677 431.782 405.417 432.476 404.979 433.054C404.54 433.632 403.943 434.069 403.259 434.311C402.576 434.554 401.836 434.592 401.131 434.419C400.427 434.247 399.788 433.872 399.294 433.342C398.799 432.811 398.471 432.148 398.348 431.433C398.226 430.718 398.316 429.983 398.606 429.318C398.896 428.653 399.374 428.088 399.982 427.691C400.589 427.295 401.299 427.085 402.024 427.086C403.041 427.124 404.002 427.563 404.696 428.308C405.39 429.052 405.76 430.042 405.726 431.059V431.059Z" fill="white"/>
<path opacity="0.2" d="M417.228 431.113C417.263 431.622 417.194 432.133 417.023 432.614C416.853 433.095 416.585 433.536 416.237 433.909C415.889 434.282 415.468 434.58 415 434.784C414.532 434.987 414.027 435.092 413.517 435.092C413.007 435.092 412.502 434.987 412.034 434.784C411.566 434.58 411.145 434.282 410.797 433.909C410.449 433.536 410.181 433.095 410.011 432.614C409.841 432.133 409.771 431.622 409.807 431.113C409.771 430.604 409.841 430.093 410.011 429.612C410.181 429.131 410.449 428.691 410.797 428.317C411.145 427.944 411.566 427.647 412.034 427.443C412.502 427.24 413.007 427.135 413.517 427.135C414.027 427.135 414.532 427.24 415 427.443C415.468 427.647 415.889 427.944 416.237 428.317C416.585 428.691 416.853 429.131 417.023 429.612C417.194 430.093 417.263 430.604 417.228 431.113Z" fill="white"/>
<path opacity="0.2" d="M428.73 431.167C428.68 431.891 428.421 432.584 427.982 433.162C427.544 433.74 426.946 434.177 426.263 434.42C425.579 434.662 424.84 434.7 424.135 434.528C423.431 434.355 422.792 433.981 422.297 433.45C421.803 432.92 421.474 432.256 421.352 431.541C421.23 430.826 421.32 430.091 421.61 429.426C421.9 428.762 422.378 428.196 422.985 427.8C423.593 427.403 424.303 427.193 425.028 427.195C426.045 427.232 427.006 427.672 427.7 428.416C428.393 429.161 428.764 430.15 428.73 431.167V431.167Z" fill="white"/>
<path opacity="0.2" d="M440.232 431.222C440.182 431.949 439.919 432.646 439.477 433.225C439.034 433.805 438.431 434.241 437.743 434.481C437.054 434.72 436.31 434.752 435.604 434.572C434.897 434.393 434.259 434.009 433.768 433.47C433.278 432.93 432.957 432.258 432.845 431.538C432.733 430.818 432.836 430.08 433.139 429.417C433.443 428.755 433.935 428.196 434.554 427.81C435.173 427.425 435.891 427.23 436.62 427.249C437.621 427.31 438.559 427.759 439.234 428.501C439.908 429.243 440.266 430.219 440.232 431.222V431.222Z" fill="white"/>
</g>
<path d="M423.891 170.56C425.145 170.008 426.209 169.099 426.951 167.946C427.692 166.794 428.079 165.448 428.062 164.078C428.108 163.187 427.973 162.296 427.664 161.459C427.356 160.622 426.88 159.857 426.266 159.21C425.652 158.562 424.912 158.047 424.093 157.695C423.273 157.343 422.39 157.161 421.498 157.161C420.606 157.161 419.723 157.343 418.904 157.695C418.084 158.047 417.345 158.562 416.73 159.21C416.116 159.857 415.64 160.622 415.332 161.459C415.023 162.296 414.888 163.187 414.935 164.078C414.907 165.462 415.29 166.823 416.036 167.99C416.781 169.157 417.856 170.076 419.124 170.632C409.012 172.149 409.464 183.127 409.464 183.127L433.37 183.236C433.37 183.236 433.93 172.059 423.891 170.56Z" fill="#1B8DA6"/>
<path opacity="0.1" d="M423.891 170.56C425.145 170.008 426.209 169.099 426.951 167.946C427.692 166.794 428.079 165.448 428.062 164.078C428.108 163.187 427.973 162.296 427.664 161.459C427.356 160.622 426.88 159.857 426.266 159.21C425.652 158.562 424.912 158.047 424.093 157.695C423.273 157.343 422.39 157.161 421.498 157.161C420.606 157.161 419.723 157.343 418.904 157.695C418.084 158.047 417.345 158.562 416.73 159.21C416.116 159.857 415.64 160.622 415.332 161.459C415.023 162.296 414.888 163.187 414.935 164.078C414.907 165.462 415.29 166.823 416.036 167.99C416.781 169.157 417.856 170.076 419.124 170.632C409.012 172.149 409.464 183.127 409.464 183.127L433.37 183.236C433.37 183.236 433.93 172.059 423.891 170.56Z" fill="black"/>
<path d="M462.738 190.316L377.531 189.93L377.485 200.113L462.692 200.5L462.738 190.316Z" fill="#1B8DA6"/>
<path opacity="0.2" d="M462.738 190.316L377.531 189.93L377.485 200.113L462.692 200.5L462.738 190.316Z" fill="white"/>
<path d="M149.488 243.092H148.64L146.184 243.273C144.855 243.353 143.534 243.528 142.23 243.797C141.385 243.915 140.548 244.078 139.72 244.284L136.921 245.061C132.158 246.522 127.663 248.748 123.614 251.651C118.263 255.535 113.796 260.507 110.505 266.241C108.571 269.546 107.031 273.067 105.919 276.731C104.749 280.714 104.076 284.826 103.914 288.974C103.807 291.152 103.843 293.336 104.023 295.51C104.023 296.611 104.33 297.713 104.474 298.832C104.596 299.961 104.807 301.078 105.106 302.173C106.73 309.418 110.024 316.184 114.727 321.931C119.429 327.677 125.409 332.245 132.19 335.27C137.098 337.388 142.359 338.57 147.701 338.755C153.218 339.058 158.741 338.267 163.952 336.426L165.541 335.83H165.757L165.938 335.938L188.707 347.494L188.039 348.072C185.601 340.524 183.254 333.212 180.979 326.188V325.917L181.177 325.718C186.701 320.155 190.801 313.342 193.131 305.856C195.241 299.013 195.856 291.796 194.936 284.694C194.118 278.383 192.089 272.288 188.96 266.746C186.263 261.985 182.783 257.713 178.668 254.107C175.272 251.253 171.514 248.861 167.491 246.993C164.447 245.68 161.276 244.681 158.029 244.013L154.418 243.417L151.8 243.219L150.211 243.11H149.669C149.849 243.091 150.031 243.091 150.211 243.11H151.818L154.436 243.219L158.047 243.742C161.335 244.362 164.548 245.324 167.635 246.613C171.727 248.459 175.553 250.846 179.011 253.71C183.202 257.299 186.755 261.573 189.519 266.349C192.737 271.951 194.829 278.127 195.677 284.532C196.673 291.743 196.1 299.085 193.997 306.055C191.653 313.696 187.489 320.654 181.863 326.332L181.972 325.863C184.247 332.887 186.612 340.199 189.068 347.729L189.411 348.83L188.382 348.307L165.613 336.769H166.01L164.385 337.365C159.074 339.233 153.449 340.043 147.827 339.748C142.37 339.54 137 338.315 131.992 336.137C122.44 332.046 114.492 324.935 109.367 315.896C107.009 311.721 105.287 307.217 104.257 302.534C103.975 301.411 103.764 300.271 103.625 299.121C103.481 297.984 103.246 296.864 103.192 295.745C102.703 289.32 103.382 282.86 105.196 276.677C106.337 272.962 107.919 269.398 109.909 266.06C113.278 260.274 117.839 255.27 123.289 251.38C127.405 248.47 131.975 246.261 136.813 244.844L139.648 244.122C140.482 243.928 141.326 243.777 142.176 243.67C143.493 243.426 144.827 243.281 146.166 243.237L148.64 243.147C148.921 243.109 149.205 243.091 149.488 243.092Z" fill="#1B8DA6"/>
<path d="M159.781 285.2H156.44L149.218 275.052V268.389C149.218 268.389 144.054 268.064 144.667 276.785C145.281 285.507 144.667 283.286 144.667 283.286C144.667 283.286 133.707 283.286 132.804 284.279C131.902 285.272 131.847 295.853 131.721 301.757C131.652 303.181 132.06 304.586 132.881 305.751C133.703 306.916 134.889 307.772 136.253 308.185C136.635 308.291 137.03 308.346 137.427 308.348C140.171 308.348 154.129 306.127 154.129 306.127H159.889L159.781 285.2Z" fill="#1B8DA6"/>
<path d="M169.332 283.412L167.274 306.235H161.568V283.882L169.332 283.412Z" fill="#1B8DA6"/>
</svg>
