<svg xmlns="http://www.w3.org/2000/svg" width="705.67004" height="465.12919" viewBox="0 0 705.67004 465.12919" xmlns:xlink="http://www.w3.org/1999/xlink"><path d="M544.16577,72.31006c-1.25977-5.81006-1.62988-1.53003-4.37012-6.80005,1.88086,6.81006-1.58984,4.58008-6.2002,9.91992-32.39941,5.08008-35.85938-11.68994-47.84961-11.34985-2.0498,0-3.70996-1.66016-3.71973-3.71997-1.01074-17.22998,2.50977-39.05005,7.5498-32.66016,0-15.2998,12.39941-27.69995,27.7002-27.69995,14.09961,0,25.73926,10.54004,27.46973,24.16992,.58008,4.56006,1.2998,9.09009,2.16016,13.6001l3.98926,13.54004c2.29004,7.76001-.36914,16.15991-6.72949,21Z" fill="#2f2e41"/><circle id="b" cx="510.43548" cy="31.4713" r="20.30867" fill="#a0616a"/><circle cx="446.9671" cy="436.7177" r="26.28336" fill="#e6e6e6"/><circle cx="198.9671" cy="88.7177" r="11.86792" fill="#6c63ff"/><path d="M199.00836,165.58564h-.0415c-6.94434-.2749-13.60107-1.21924-19.82373-2.80859l.49512-1.9375c6.08691,1.5542,12.60352,2.47852,19.36816,2.74707l.00195,1.99902Zm19.89111-2.61035l-.51758-1.93164c6.30859-1.68945,12.38037-4.20898,18.0459-7.48926l1.00195,1.73047c-5.81738,3.36865-12.05225,5.95605-18.53027,7.69043Zm-58.41797-7.52881c-5.92188-3.27197-11.32129-7.32471-16.04834-12.04541l1.41309-1.41504c4.59521,4.58838,9.84424,8.52832,15.60205,11.70947l-.9668,1.75098Zm92.85107-12.38721l-1.41406-1.41406c4.62891-4.63037,8.63379-9.84521,11.9043-15.5l1.73145,1.00098c-3.35742,5.80566-7.46973,11.15967-12.22168,15.91309Zm-120.98193-15.68652c-3.229-5.79736-5.71094-12.0752-7.37646-18.65967l1.93848-.49023c1.62354,6.41553,4.04053,12.53125,7.18506,18.17627l-1.74707,.97363Zm140.88623-18.76514l-1.93262-.5166c1.6792-6.28516,2.53076-12.80322,2.53076-19.37354l-.00049-.17773h2l.00049,.16943c0,6.75244-.87402,13.44434-2.59814,19.89844Zm-150.15674-19.82031l-.58057-.02734c0-6.7373,.81982-13.4126,2.43652-19.86182l1.94043,.48633c-1.57715,6.29053-2.37695,12.80225-2.37695,19.354l-1.41943,.04883Zm148.17822-19.61475c-1.69971-6.30469-4.23047-12.37109-7.52148-18.03174l1.72852-1.00488c3.37988,5.81201,5.97852,12.0415,7.72363,18.51611l-1.93066,.52051Zm-137.23926-17.98047l-1.75-.96875c3.28369-5.92969,7.3335-11.33203,12.03857-16.05713l1.41699,1.41113c-4.57373,4.59375-8.51221,9.84717-11.70557,15.61475Zm117.78076-15.52051c-4.64014-4.62109-9.8623-8.61719-15.52148-11.87646l.99805-1.7334c5.81006,3.34668,11.17139,7.44873,15.93457,12.19287l-1.41113,1.41699Zm-90.50488-11.84619l-.97168-1.74805c5.71973-3.17969,11.99268-5.66064,18.64453-7.37451l.49902,1.93652c-6.4873,1.67139-12.60107,4.08887-18.17188,7.18604Zm56.91553-7.47949c-6.24512-1.65625-12.71924-2.49609-19.24268-2.49609l-.09473,.00488-.08496-1.99805,.13672-.00586h.01074c6.73584,0,13.37842,.8623,19.7876,2.56152l-.5127,1.93359Z" fill="#3f3d56"/><path d="M544.57263,179.62323h-72.59221c6.08457-13.57728,9.82529-26.50793,3.9776-36.79334l65.08961-3.82882c-4,23,4,32,3.52501,40.62217Z" fill="#a0616a"/><g><polygon points="544.82776 440.7636 535.11385 440.99283 529.69915 397.35185 544.03445 397.01262 544.82776 440.7636" fill="#a0616a"/><path d="M511.50056,461.02975h0c0,1.64099,1.16454,2.97131,2.6011,2.97131h19.2813s1.89744-7.6272,9.63359-10.90961l.53393,10.90961h9.94655l-1.20513-17.54215s2.66075-9.38511-2.86506-14.18251c-5.52587-4.7974-1.05012-4.12957-1.05012-4.12957l-2.17378-10.85727-15.03031,1.76747-.11051,17.04337-7.2941,16.91713-10.69868,5.28497c-.95224,.47038-1.56866,1.54214-1.56866,2.72722l-.00012,.00003Z" fill="#2f2e41"/></g><g><polygon points="454.56376 396.13465 444.89645 397.11237 436.13213 354.01897 450.39857 352.57516 454.56376 396.13465" fill="#a0616a"/><path d="M422.89881,418.91075h0c.12656,1.6361,1.39023,2.87264,2.82251,2.76185l19.22387-1.48704s1.30355-7.75082,8.7635-11.62009l1.37373,10.83593,9.91692-.76711-2.55445-17.39696s1.92901-9.56236-3.95034-13.91931c-5.87941-4.35694-1.36548-4.03628-1.36548-4.03628l-3.00466-10.65728-14.84922,2.9214,1.20426,17.00113-5.96766,17.42929-10.25922,6.09435c-.91312,.54241-1.44505,1.65853-1.35365,2.84008l-.00012,.00004Z" fill="#2f2e41"/></g><path d="M537.81968,172.17879l7.13506,2.37835c11.15564,20.60351,15.88535,47.964,15.2586,80.95696l-12.67402,148.18495h-20.73525l-15.17443-165.0836-8.04889,6.75615-46.70734,39.20564-1.42349,78.12181-19.57651,1.99591-18.43023-82.23005,55.46034-108.6277,64.91615-1.65843Z" fill="#2f2e41"/><path d="M551.27263,74.65654c-1.48889-4.46667-21.58889-6.7-21.58889-6.7l-5.95556-12.65556-22.33334,1.48889-12.65556,11.16667s-11.91111,2.23333-13.4,6.7-.29166,66.34452-.29166,66.34452l-1.19723,20.7555,67.00001-1.48889,.19721-17.26661s11.7139-63.87785,10.22501-68.34452Z" fill="#e6e6e6"/><circle cx="578.07264" cy="219.82324" r="48.3889" fill="#6c63ff"/><path d="M578.07227,237.40856c-.75026,0-1.45254-.37731-1.8662-1.00762l-12.28334-18.70163c-.6772-1.03088-.3904-2.41581,.64048-3.09264,1.03234-.67683,2.41581-.39003,3.09264,.64048l10.28446,15.65842,15.68786-27.45139c.61213-1.07123,1.97598-1.44345,3.04684-.83096,1.07123,.61177,1.44309,1.97598,.83096,3.04684l-17.49445,30.6131c-.38531,.67465-1.0934,1.09995-1.86984,1.12466-.0229,.00073-.04616,.00073-.06943,.00073Z" fill="#fff"/><g><g><polygon points="596.04762 145.00106 603.54344 166.30713 607.49071 206.69528 598.18319 206.81241 588.8512 172.00628 570.86168 126.98146 596.04762 145.00106" fill="#a0616a"/><ellipse cx="603.70109" cy="213.74281" rx="6.14166" ry="10.34386" transform="translate(-29.45669 117.55434) rotate(-10.85847)" fill="#a0616a"/></g><path d="M541.02828,71.73689s13.23015-5.14356,19.20182,6.86805,38.10825,65.4744,38.10825,65.4744l2.3659,6.42085-18.86784,8.30164-2.91844-7.92037s-10.47061,3.96433-11.13266-2.13871c-.25438-2.34494-19.11629-29.03937-23.95713-42.81952-7.75814-22.08465-2.7999-34.18633-2.7999-34.18633Z" fill="#e6e6e6"/></g><path d="M633.34575,447.49386c2.06592,.12937,3.20768-2.43737,1.64468-3.93333l-.1555-.61819c.02047-.04951,.04105-.09897,.06178-.14839,2.08924-4.9818,9.16992-4.94742,11.24139,.04177,1.83859,4.42817,4.17942,8.86389,4.75579,13.54594,.25838,2.0668,.14213,4.17236-.31648,6.20047,4.30807-9.41059,6.57515-19.68661,6.57515-30.02077,0-2.59652-.14213-5.19301-.43275-7.78295-.239-2.11854-.56839-4.2241-.99471-6.31034-2.30575-11.2772-7.29852-22.01825-14.50012-30.98962-3.46197-1.89248-6.34906-4.85065-8.09295-8.39652-.62649-1.27891-1.11739-2.65462-1.34991-4.05618,.39398,.05168,1.48556-5.94866,1.18841-6.3168,.54906-.83317,1.53178-1.24733,2.13144-2.06034,2.98232-4.04341,7.0912-3.33741,9.23621,2.15727,4.58224,2.31266,4.62659,6.14806,1.81495,9.83683-1.78878,2.34682-2.03456,5.52233-3.60408,8.03478,.16151,.20671,.32944,.40695,.4909,.61366,2.96106,3.79788,5.52208,7.88002,7.68104,12.16859-.61017-4.76621,.29067-10.50822,1.82641-14.20959,1.74819-4.21732,5.02491-7.76915,7.91045-11.41501,3.46601-4.37924,10.57337-2.46806,11.18401,3.08332,.00591,.05375,.01166,.10745,.01731,.1612-.4286,.24178-.84849,.49867-1.25864,.76992-2.33949,1.54723-1.53096,5.17386,1.24107,5.60174l.06277,.00967c-.15503,1.54366-.41984,3.07444-.80734,4.57937,3.70179,14.31579-4.29011,19.5299-15.70147,19.76412-.25191,.12916-.49738,.25832-.74929,.38109,1.15617,3.25525,2.07982,6.59447,2.76441,9.97891,.61359,2.99043,1.03991,6.01317,1.27885,9.04888,.29715,3.83006,.27129,7.67959-.05168,11.50323l.01939-.13562c.82024-4.21115,3.10671-8.14462,6.4266-10.87028,4.94561-4.06264,11.93282-5.55869,17.26826-8.82425,2.56833-1.57196,5.85945,.45945,5.41121,3.43708l-.02182,.14261c-.79443,.32289-1.56947,.69755-2.31871,1.11733-.4286,.24184-.84848,.49867-1.25864,.76992-2.33949,1.54729-1.53096,5.17392,1.24107,5.6018l.06282,.00965c.0452,.00646,.08397,.01295,.12911,.01944-1.36282,3.23581-3.26168,6.23922-5.63854,8.82922-2.31463,12.49713-12.25603,13.68282-22.89022,10.04354h-.00648c-1.16259,5.06378-2.86128,10.01127-5.0444,14.72621h-18.02019c-.06463-.20022-.12274-.40692-.18089-.60717,1.6664,.10341,3.34571,.00649,4.98629-.29702-1.33701-1.64059-2.67396-3.29409-4.01097-4.93462-.03229-.0323-.05816-.0646-.08397-.09689-.67817-.8396-1.36282-1.67283-2.04099-2.51246l-.00036-.00102c-.04245-2.57755,.26652-5.14662,.87876-7.63984l.00057-.00035Z" fill="#f2f2f2"/><path d="M69.00116,455.00293c-1.10174,.06899-1.71062-1.29982-.87709-2.09761l.08292-.32968-.03295-.07914c-1.11417-2.65674-4.89023-2.63841-5.99492,.02227-.9805,2.3615-2.22885,4.72703-2.53622,7.22392-.13779,1.10221-.07579,2.22508,.16878,3.30665-2.29745-5.01857-3.50647-10.49868-3.50647-16.00979,0-1.3847,.07579-2.76938,.23078-4.15057,.12745-1.1298,.30312-2.25267,.53047-3.36524,1.22963-6.01402,3.89223-11.74212,7.73277-16.52647,1.84623-1.00924,3.38589-2.5868,4.31589-4.47778,.3341-.68203,.5959-1.41569,.7199-2.16312-.2101,.02756-.79223-3.17236-.63377-3.36869-.29281-.44432-.81688-.66519-1.13667-1.09876-1.59044-2.15631-3.78167-1.77981-4.92558,1.15045-2.44366,1.23332-2.46732,3.2787-.9679,5.24589,.95394,1.25153,1.08501,2.945,1.92202,4.28487-.08613,.11023-.17569,.21702-.26179,.32726-1.5791,2.02537-2.94487,4.20234-4.09622,6.48939,.3254-2.54177-.15501-5.60393-.974-7.57784-.93229-2.24905-2.67973-4.14321-4.21857-6.08752-1.84839-2.33541-5.63868-1.31619-5.96432,1.64431l-.00923,.08596c.22857,.12894,.45249,.26594,.67122,.41059,1.24763,.82512,.81645,2.75917-.66185,2.98736l-.03347,.00516c.08268,.82322,.2239,1.63957,.43055,2.44214-1.97413,7.63447,2.28788,10.41511,8.37344,10.54002,.13434,.06888,.26525,.13776,.39959,.20323-.61657,1.73599-1.10915,3.51677-1.47423,5.32166-.32722,1.59477-.55457,3.20676-.682,4.82568-.15847,2.04254-.14468,4.09545,.02756,6.13456l-.01034-.07233c-.43743-2.24577-1.65678-4.34345-3.42725-5.79701-2.63744-2.16657-6.36366-2.96439-9.20899-4.70589-1.36966-.83831-3.12479,.24502-2.88575,1.83296l.01164,.07605c.42366,.17219,.83699,.372,1.23655,.59586,.22857,.12897,.45249,.26594,.67122,.41059,1.24763,.82515,.81644,2.7592-.66185,2.98739l-.0335,.00514-.06885,.01037c.72678,1.72563,1.73942,3.32732,3.00698,4.70854,1.23437,6.6646,6.53602,7.29692,12.20714,5.35612h.00346c.62,2.70047,1.5259,5.33891,2.69013,7.85334h9.60999c.03447-.10677,.06546-.21701,.09647-.3238-.88868,.05515-1.78423,.00346-2.65914-.1584,.71301-.87491,1.426-1.75671,2.13901-2.63159,.01722-.01722,.03101-.03445,.04478-.05167,.36166-.44775,.72678-.8921,1.08844-1.33987l.00019-.00055c.02264-1.37458-.14213-2.74464-.46863-4.07425l-.0003-.00019Z" fill="#f2f2f2"/><path d="M0,463.93919c0,.66003,.53003,1.19,1.19006,1.19H704.48004c.65997,0,1.19-.52997,1.19-1.19,0-.65997-.53003-1.19-1.19-1.19H1.19006c-.66003,0-1.19006,.53003-1.19006,1.19Z" fill="#ccc"/><g><g><polygon points="452.04762 157.00106 451.80388 177.25109 458.93809 217.19964 467.92976 214.79262 467.49036 178.75986 472.61874 130.5462 452.04762 157.00106" fill="#a0616a"/><ellipse cx="464.49415" cy="222.95804" rx="6.14166" ry="10.34386" transform="translate(-17.18405 40.06132) rotate(-4.84896)" fill="#a0616a"/></g><path d="M486.38196,69.28799s-14.12858-1.36975-16.6254,11.80999c-2.49682,13.17975-18.95959,73.34623-18.95959,73.34623l-.53927,6.82158,20.41071,2.88363,.66521-8.41469s11.15284,.98163,10.13793-5.07274,4.91041-81.374,4.91041-81.374Z" fill="#e6e6e6"/></g><path id="c-16" d="M483.0187,29.354c-.27678-14.52454,9.20133-27.03571,21.91148-21.91146h4.13453c12.09572,.01365,32.77032,17.12205,24.77032,29.12205-11-9-7.50714,36.28124-18.91339,38.81102-.09473,1.15601-3.51229-.42951-3.56893-1.58792l11.71909-35.19901c-.55325-5.85794-1.83408-11.62415-3.8129-17.16544h0l-.33727,12.95238-4.77483-4.60808c-3.88931,.10085-7.75603-.5174-11.45601-1.72023-6.76565-2.19942-13.18933,.15323-19.67209,1.72023v-.41354Z" fill="#2f2e41"/></svg>