<svg width="80" height="80" viewBox="0 0 80 80" fill="none" xmlns="http://www.w3.org/2000/svg">
<path d="M40 6.6665C21.6 6.6665 6.66666 21.5998 6.66666 39.9998C6.66666 58.3998 21.6 73.3332 40 73.3332C58.4 73.3332 73.3333 58.3998 73.3333 39.9998C73.3333 21.5998 58.4 6.6665 40 6.6665Z" fill="#E7DEDE" fill-opacity="0.5"/>
<path d="M40 6.6665C21.6 6.6665 6.66666 21.5998 6.66666 39.9998C6.66666 58.3998 21.6 73.3332 40 73.3332C58.4 73.3332 73.3333 58.3998 73.3333 39.9998C73.3333 21.5998 58.4 6.6665 40 6.6665Z" fill="#E7DEDE" fill-opacity="0.5"/>
<path d="M48.3333 41.0832C54.7708 35.229 60.8333 29.7498 60.8333 25.0415C60.8333 21.1873 57.8125 18.1665 53.9583 18.1665C51.7917 18.1665 49.6875 19.1873 48.3333 20.7707C46.9583 19.1873 44.875 18.1665 42.7083 18.1665C38.8542 18.1665 35.8333 21.1873 35.8333 25.0415C35.8333 29.7498 41.8958 35.229 48.3333 41.0832ZM42.7083 22.3332C43.625 22.3332 44.5625 22.7707 45.1667 23.479L48.3333 27.2082L51.5 23.479C52.1042 22.7707 53.0417 22.3332 53.9583 22.3332C55.5 22.3332 56.6667 23.4998 56.6667 25.0415C56.6667 27.3748 52.4167 31.6457 48.3333 35.4373C44.25 31.6457 40 27.354 40 25.0415C40 23.4998 41.1667 22.3332 42.7083 22.3332Z" fill="#1B8DA6"/>
<path d="M54.5833 47.3332H50.4167C50.4167 44.8332 48.8542 42.5832 46.5208 41.7082L33.6875 36.9165H17.0833V59.8332H29.5833V56.8332L44.1667 60.8748L60.8333 55.6665V53.5832C60.8333 50.1248 58.0417 47.3332 54.5833 47.3332ZM21.25 55.6665V41.0832H25.4167V55.6665H21.25ZM44.1042 56.5207L29.5833 52.4998V41.0832H32.9375L45.0625 45.604C45.7708 45.8748 46.25 46.5623 46.25 47.3332C46.25 47.3332 42.1042 47.229 41.4583 47.0207L36.5 45.3748L35.1875 49.3332L40.1458 50.979C41.2083 51.3332 42.3125 51.5207 43.4375 51.5207H54.5833C55.3958 51.5207 56.125 51.9998 56.4583 52.6873L44.1042 56.5207Z" fill="#1B8DA6"/>
</svg>
