<svg width="80" height="80" viewBox="0 0 80 80" fill="none" xmlns="http://www.w3.org/2000/svg">
<path d="M40 6.6665C21.6 6.6665 6.66666 21.5998 6.66666 39.9998C6.66666 58.3998 21.6 73.3332 40 73.3332C58.4 73.3332 73.3333 58.3998 73.3333 39.9998C73.3333 21.5998 58.4 6.6665 40 6.6665Z" fill="#E7DEDE" fill-opacity="0.5"/>
<path d="M35.6667 44.6665H31C31 33.0698 40.4033 23.6665 52 23.6665V28.3332C42.97 28.3332 35.6667 35.6365 35.6667 44.6665ZM52 37.6665V32.9998C45.56 32.9998 40.3333 38.2265 40.3333 44.6665H45C45 40.7932 48.1267 37.6665 52 37.6665ZM26.3333 21.3332C26.3333 18.7432 24.2567 16.6665 21.6667 16.6665C19.0767 16.6665 17 18.7432 17 21.3332C17 23.9232 19.0767 25.9998 21.6667 25.9998C24.2567 25.9998 26.3333 23.9232 26.3333 21.3332ZM36.7167 22.4998H32.05C31.49 25.8132 28.6433 28.3332 25.1667 28.3332H18.1667C16.23 28.3332 14.6667 29.8965 14.6667 31.8332V37.6665H28.6667V32.3932C33.0067 31.0165 36.25 27.1898 36.7167 22.4998ZM54.3333 51.6665C56.9233 51.6665 59 49.5898 59 46.9998C59 44.4098 56.9233 42.3332 54.3333 42.3332C51.7433 42.3332 49.6667 44.4098 49.6667 46.9998C49.6667 49.5898 51.7433 51.6665 54.3333 51.6665ZM57.8333 53.9998H50.8333C47.3567 53.9998 44.51 51.4798 43.95 48.1665H39.2833C39.75 52.8565 42.9933 56.6832 47.3333 58.0598V63.3332H61.3333V57.4998C61.3333 55.5632 59.77 53.9998 57.8333 53.9998Z" fill="#1B8DA6"/>
</svg>
