<svg width="20" height="21" viewBox="0 0 20 21" fill="none" xmlns="http://www.w3.org/2000/svg">
<path d="M10.0003 1.75C5.40033 1.75 1.66699 5.67 1.66699 10.5C1.66699 15.33 5.40033 19.25 10.0003 19.25C14.6003 19.25 18.3337 15.33 18.3337 10.5C18.3337 5.67 14.6003 1.75 10.0003 1.75ZM5.89199 15.995C6.25033 15.2075 8.43366 14.4375 10.0003 14.4375C11.567 14.4375 13.7587 15.2075 14.1087 15.995C12.9753 16.94 11.5503 17.5 10.0003 17.5C8.45033 17.5 7.02533 16.94 5.89199 15.995ZM15.3003 14.7262C14.1087 13.2037 11.217 12.6875 10.0003 12.6875C8.78366 12.6875 5.89199 13.2037 4.70033 14.7262C3.85033 13.5537 3.33366 12.0925 3.33366 10.5C3.33366 6.64125 6.32533 3.5 10.0003 3.5C13.6753 3.5 16.667 6.64125 16.667 10.5C16.667 12.0925 16.1503 13.5537 15.3003 14.7262V14.7262ZM10.0003 5.25C8.38366 5.25 7.08366 6.615 7.08366 8.3125C7.08366 10.01 8.38366 11.375 10.0003 11.375C11.617 11.375 12.917 10.01 12.917 8.3125C12.917 6.615 11.617 5.25 10.0003 5.25ZM10.0003 9.625C9.30866 9.625 8.75033 9.03875 8.75033 8.3125C8.75033 7.58625 9.30866 7 10.0003 7C10.692 7 11.2503 7.58625 11.2503 8.3125C11.2503 9.03875 10.692 9.625 10.0003 9.625Z" fill="black"/>
</svg>
