<svg width="20" height="21" viewBox="0 0 20 21" fill="none" xmlns="http://www.w3.org/2000/svg">
<path d="M9 16.8H11V14.7H9V16.8ZM10 0C4.48 0 0 4.704 0 10.5C0 16.296 4.48 21 10 21C15.52 21 20 16.296 20 10.5C20 4.704 15.52 0 10 0ZM10 18.9C5.59 18.9 2 15.1305 2 10.5C2 5.8695 5.59 2.1 10 2.1C14.41 2.1 18 5.8695 18 10.5C18 15.1305 14.41 18.9 10 18.9ZM10 4.2C7.79 4.2 6 6.0795 6 8.4H8C8 7.245 8.9 6.3 10 6.3C11.1 6.3 12 7.245 12 8.4C12 10.5 9 10.2375 9 13.65H11C11 11.2875 14 11.025 14 8.4C14 6.0795 12.21 4.2 10 4.2Z" fill="black"/>
</svg>
