<svg width="20" height="21" viewBox="0 0 20 21" fill="none" xmlns="http://www.w3.org/2000/svg">
<path d="M14.9997 7H14.1663V5.25C14.1663 2.835 12.2997 0.875 9.99967 0.875C7.69967 0.875 5.83301 2.835 5.83301 5.25V7H4.99967C4.08301 7 3.33301 7.7875 3.33301 8.75V17.5C3.33301 18.4625 4.08301 19.25 4.99967 19.25H14.9997C15.9163 19.25 16.6663 18.4625 16.6663 17.5V8.75C16.6663 7.7875 15.9163 7 14.9997 7ZM7.49967 5.25C7.49967 3.7975 8.61634 2.625 9.99967 2.625C11.383 2.625 12.4997 3.7975 12.4997 5.25V7H7.49967V5.25ZM14.9997 17.5H4.99967V8.75H14.9997V17.5ZM9.99967 14.875C10.9163 14.875 11.6663 14.0875 11.6663 13.125C11.6663 12.1625 10.9163 11.375 9.99967 11.375C9.08301 11.375 8.33301 12.1625 8.33301 13.125C8.33301 14.0875 9.08301 14.875 9.99967 14.875Z" fill="black"/>
</svg>
