<svg width="80" height="80" viewBox="0 0 80 80" fill="none" xmlns="http://www.w3.org/2000/svg">
<path d="M39.9998 6.66675C21.5998 6.66675 6.6665 21.6001 6.6665 40.0001C6.6665 58.4001 21.5998 73.3334 39.9998 73.3334C58.3998 73.3334 73.3332 58.4001 73.3332 40.0001C73.3332 21.6001 58.3998 6.66675 39.9998 6.66675Z" fill="#E7DEDE" fill-opacity="0.5"/>
<path d="M28.3332 38.3333H21.6665V56.6666H28.3332V38.3333Z" fill="#1B8DA6"/>
<path d="M46.6665 25.4166C47.7498 24.1499 49.4332 23.3333 51.1665 23.3333C54.2498 23.3333 56.6665 25.7499 56.6665 28.8333C56.6665 32.6166 51.8165 36.9999 46.6665 41.6666C41.5165 36.9833 36.6665 32.5999 36.6665 28.8333C36.6665 25.7499 39.0832 23.3333 42.1665 23.3333C43.8998 23.3333 45.5832 24.1499 46.6665 25.4166Z" fill="#1B8DA6"/>
<path d="M53.3332 48.3333H41.6665L38.1832 47.1166L38.7332 45.5499L41.6665 46.6666H46.3665C47.4498 46.6666 48.3332 45.7833 48.3332 44.6999C48.3332 43.8833 47.8165 43.1499 47.0498 42.8499L34.9498 38.3333H31.6665V53.3666L43.3332 56.6666L56.6832 51.6666C56.6665 49.8333 55.1832 48.3333 53.3332 48.3333Z" fill="#1B8DA6"/>
</svg>
