<svg width="80" height="80" viewBox="0 0 80 80" fill="none" xmlns="http://www.w3.org/2000/svg">
<path d="M40.0001 6.66675C21.6001 6.66675 6.66675 21.6001 6.66675 40.0001C6.66675 58.4001 21.6001 73.3334 40.0001 73.3334C58.4001 73.3334 73.3334 58.4001 73.3334 40.0001C73.3334 21.6001 58.4001 6.66675 40.0001 6.66675Z" fill="#E7DEDE" fill-opacity="0.5"/>
<path d="M56.6667 35.0001V31.6667H53.3333V35.0001H50V38.3334H53.3333V41.6667H56.6667V38.3334H60V35.0001H56.6667Z" fill="#1B8DA6"/>
<path d="M33.3334 40.0001C37.0167 40.0001 40.0001 37.0167 40.0001 33.3334C40.0001 29.6501 37.0167 26.6667 33.3334 26.6667C29.6501 26.6667 26.6667 29.6501 26.6667 33.3334C26.6667 37.0167 29.6501 40.0001 33.3334 40.0001Z" fill="#1B8DA6"/>
<path d="M33.3333 41.6667C28.8833 41.6667 20 43.9001 20 48.3334V53.3334H46.6667V48.3334C46.6667 43.9001 37.7833 41.6667 33.3333 41.6667Z" fill="#1B8DA6"/>
<path d="M40.8501 26.75C42.3834 28.5167 43.3334 30.8167 43.3334 33.3333C43.3334 35.85 42.3834 38.15 40.8501 39.9167C44.1168 39.5 46.6668 36.7333 46.6668 33.3333C46.6668 29.9333 44.1168 27.1667 40.8501 26.75Z" fill="#1B8DA6"/>
<path d="M47.55 43.05C49.0334 44.4334 50 46.1667 50 48.3334V53.3334H53.3334V48.3334C53.3334 45.9167 50.6834 44.15 47.55 43.05Z" fill="#1B8DA6"/>
</svg>
