<svg width="80" height="80" viewBox="0 0 80 80" fill="none" xmlns="http://www.w3.org/2000/svg">
<path d="M39.9998 6.66675C21.5998 6.66675 6.6665 21.6001 6.6665 40.0001C6.6665 58.4001 21.5998 73.3334 39.9998 73.3334C58.3998 73.3334 73.3332 58.4001 73.3332 40.0001C73.3332 21.6001 58.3998 6.66675 39.9998 6.66675Z" fill="#E7DEDE" fill-opacity="0.5"/>
<path d="M58.6667 35.0001V31.6667H55.3333V35.0001H52V38.3334H55.3333V41.6667H58.6667V38.3334H62V35.0001H58.6667Z" fill="#1B8DA6"/>
<path d="M35.3332 40.0001C39.0165 40.0001 41.9998 37.0167 41.9998 33.3334C41.9998 29.6501 39.0165 26.6667 35.3332 26.6667C31.6498 26.6667 28.6665 29.6501 28.6665 33.3334C28.6665 37.0167 31.6498 40.0001 35.3332 40.0001Z" fill="#1B8DA6"/>
<path d="M35.3333 41.6667C30.8833 41.6667 22 43.9001 22 48.3334V53.3334H48.6667V48.3334C48.6667 43.9001 39.7833 41.6667 35.3333 41.6667Z" fill="#1B8DA6"/>
<path d="M42.8501 26.75C44.3834 28.5167 45.3334 30.8167 45.3334 33.3333C45.3334 35.85 44.3834 38.15 42.8501 39.9167C46.1168 39.5 48.6668 36.7333 48.6668 33.3333C48.6668 29.9333 46.1168 27.1667 42.8501 26.75Z" fill="#1B8DA6"/>
<path d="M49.5498 43.05C51.0331 44.4334 51.9998 46.1667 51.9998 48.3334V53.3334H55.3331V48.3334C55.3331 45.9167 52.6831 44.15 49.5498 43.05Z" fill="#1B8DA6"/>
</svg>
