<svg width="78" height="77" viewBox="0 0 78 77" fill="none" xmlns="http://www.w3.org/2000/svg">
<g filter="url(#filter0_d_630_13806)">
<path d="M23.939 3.24675C-1.64785 14.7747 -2.88308 50.7557 21.8214 64.5543C45.8201 78.0035 76.1713 59.1397 73.8774 32.0665C71.7598 7.78805 46.173 -6.88385 23.939 3.24675ZM54.8196 9.0107C63.9955 15.2987 67.7012 21.4119 68.5835 32.0665C69.2894 40.1011 68.5835 42.8958 64.7014 49.3584C62.2309 53.725 59.0546 57.5677 57.4665 58.2663C54.1137 59.489 56.0548 56.6943 59.4076 52.3277C60.8193 50.4064 60.1134 47.6118 60.1134 44.8171C60.1134 42.1971 60.9957 38.3545 61.878 36.4332C63.9956 32.7652 63.6426 32.5905 59.4076 34.1625C57.4665 34.8612 56.5842 37.4812 56.5842 42.0225C56.5842 49.1837 54.224 52.2838 52.1727 40.1011C51.3075 34.9629 37.5616 75.5421 44.6673 46.2887C44.9111 45.2851 44.3173 44.0774 43.7906 44.9658C42.976 46.3399 41.1933 49.8097 36.5404 58.0026C36.3809 58.2834 36.1342 58.5563 35.8435 58.6969C30.3852 61.3365 52.1496 29.0935 34.2084 50.7709C33.8654 51.1853 33.2529 51.6428 32.833 51.3066C31.3137 50.0903 39.1317 42.0892 39.8204 36.4332C40.223 33.1273 33.4028 42.1024 30.7029 43.5625C30.1318 43.8713 29.3825 43.353 29.5774 42.7337C29.9032 41.6985 31.0306 39.8266 32.762 37.6558C37.5264 31.3679 39.8204 33.1145 30.2915 13.2027C26.7623 4.64407 24.6448 10.2334 27.4682 20.0146C30.6445 30.3199 29.9386 34.8612 26.5859 25.6039C25.1742 22.1106 23.4096 19.1413 22.5273 19.1413C20.9391 19.1413 21.1156 21.2373 23.939 33.1145C24.9977 37.4812 24.9977 37.3065 22.1743 32.5905C20.7627 29.9706 18.9981 27.8746 18.4687 27.8746C16.8805 27.8746 18.6451 34.3372 24.4683 49.1837C27.4682 56.6944 29.4092 62.8076 28.8799 62.8076C28.3505 62.8076 25.1742 61.2357 21.8214 59.1397C13.1748 53.725 8.41041 43.4198 9.29271 31.8919C10.7044 15.2987 21.9979 5.16806 38.9381 5.16806C46.5259 5.16806 50.4081 6.21606 54.8196 9.0107Z" fill="#1B8DA6"/>
<path d="M35.5855 19.4907C35.9384 27.176 34.5267 35.7346 36.2913 33.1146C38.0559 30.4947 38.9382 27.8747 39.8205 21.7614C38.0559 13.9014 35.2326 13.5521 35.5855 19.4907Z" fill="#1B8DA6"/>
</g>
<defs>
<filter id="filter0_d_630_13806" x="0" y="0" width="78" height="77" filterUnits="userSpaceOnUse" color-interpolation-filters="sRGB">
<feFlood flood-opacity="0" result="BackgroundImageFix"/>
<feColorMatrix in="SourceAlpha" type="matrix" values="0 0 0 0 0 0 0 0 0 0 0 0 0 0 0 0 0 0 127 0" result="hardAlpha"/>
<feOffset dy="4"/>
<feGaussianBlur stdDeviation="2"/>
<feComposite in2="hardAlpha" operator="out"/>
<feColorMatrix type="matrix" values="0 0 0 0 0 0 0 0 0 0 0 0 0 0 0 0 0 0 0.25 0"/>
<feBlend mode="normal" in2="BackgroundImageFix" result="effect1_dropShadow_630_13806"/>
<feBlend mode="normal" in="SourceGraphic" in2="effect1_dropShadow_630_13806" result="shape"/>
</filter>
</defs>
</svg>
